<svg xmlns="http://www.w3.org/2000/svg" version="1.1" xmlns:xlink="http://www.w3.org/1999/xlink" width="512" height="512" x="0" y="0" viewBox="0 0 512 512" style="enable-background:new 0 0 512 512" xml:space="preserve" class=""><g><path fill="#251e2d" d="M67.599 111.91h22.165v22.168H67.599z" opacity="1" data-original="#251e2d" class=""></path><path fill="#47414d" d="M89.764 111.91h22.165v22.168H89.764zM111.929 111.91h22.165v22.168h-22.165z" opacity="1" data-original="#47414d"></path><path fill="#47414d" d="M134.093 111.91h22.165v22.168h-22.165zM156.258 111.91h22.165v22.168h-22.165zM178.423 111.91h22.165v22.168h-22.165zM200.588 111.91h22.165v22.168h-22.165zM222.753 111.91h22.165v22.168h-22.165z" opacity="1" data-original="#47414d"></path><path fill="#47414d" d="M244.917 111.91h22.165v22.168h-22.165z" opacity="1" data-original="#47414d"></path><path fill="#37323d" d="M267.082 111.91h22.165v22.168h-22.165zM289.247 111.91h22.165v22.168h-22.165z" opacity="1" data-original="#37323d" class=""></path><path fill="#37323d" d="M311.412 111.91h22.165v22.168h-22.165zM333.577 111.91h22.165v22.168h-22.165zM355.742 111.91h22.164v22.168h-22.164zM377.906 111.91h22.165v22.168h-22.165zM400.071 111.91h22.165v22.168h-22.165z" opacity="1" data-original="#37323d" class=""></path><g fill="#251e2d"><path d="M89.764 89.743h22.165v22.167H89.764zM111.929 89.743h22.165v22.167h-22.165z" fill="#251e2d" opacity="1" data-original="#251e2d" class=""></path><path d="M134.093 89.743h22.165v22.167h-22.165zM156.258 89.743h22.165v22.167h-22.165zM178.423 89.743h22.165v22.167h-22.165zM200.588 89.743h22.165v22.167h-22.165zM222.753 89.743h22.165v22.167h-22.165z" fill="#251e2d" opacity="1" data-original="#251e2d" class=""></path><path d="M244.917 89.743h22.165v22.167h-22.165zM267.082 89.743h22.165v22.167h-22.165zM289.247 89.743h22.165v22.167h-22.165z" fill="#251e2d" opacity="1" data-original="#251e2d" class=""></path><path d="M311.412 89.743h22.165v22.167h-22.165zM333.577 89.743h22.165v22.167h-22.165zM355.742 89.743h22.164v22.167h-22.164zM377.906 89.743h22.165v22.167h-22.165zM400.071 89.743h22.165v22.167h-22.165zM422.236 111.91h22.165v22.168h-22.165zM67.599 134.078h22.165v22.168H67.599z" fill="#251e2d" opacity="1" data-original="#251e2d" class=""></path></g><path fill="#47414d" d="M89.764 134.078h22.165v22.168H89.764zM111.929 134.078h22.165v22.168h-22.165z" opacity="1" data-original="#47414d"></path><path fill="#47414d" d="M134.093 134.078h22.165v22.168h-22.165zM156.258 134.078h22.165v22.168h-22.165zM178.423 134.078h22.165v22.168h-22.165zM200.588 134.078h22.165v22.168h-22.165zM222.753 134.078h22.165v22.168h-22.165z" opacity="1" data-original="#47414d"></path><path fill="#47414d" d="M244.917 134.078h22.165v22.168h-22.165z" opacity="1" data-original="#47414d"></path><path fill="#37323d" d="M267.082 134.078h22.165v22.168h-22.165zM289.247 134.078h22.165v22.168h-22.165z" opacity="1" data-original="#37323d" class=""></path><path fill="#37323d" d="M311.412 134.078h22.165v22.168h-22.165zM333.577 134.078h22.165v22.168h-22.165zM355.742 134.078h22.164v22.168h-22.164zM377.906 134.078h22.165v22.168h-22.165zM400.071 134.078h22.165v22.168h-22.165z" opacity="1" data-original="#37323d" class=""></path><path fill="#251e2d" d="M422.236 134.078h22.165v22.168h-22.165zM67.599 156.246h22.165v22.167H67.599z" opacity="1" data-original="#251e2d" class=""></path><path fill="#47414d" d="M89.764 156.246h22.165v22.167H89.764zM111.929 156.246h22.165v22.167h-22.165z" opacity="1" data-original="#47414d"></path><path fill="#47414d" d="M134.093 156.246h22.165v22.167h-22.165zM156.258 156.246h22.165v22.167h-22.165zM178.423 156.246h22.165v22.167h-22.165zM200.588 156.246h22.165v22.167h-22.165zM222.753 156.246h22.165v22.167h-22.165z" opacity="1" data-original="#47414d"></path><path fill="#47414d" d="M244.917 156.246h22.165v22.167h-22.165z" opacity="1" data-original="#47414d"></path><path fill="#37323d" d="M267.082 156.246h22.165v22.167h-22.165zM289.247 156.246h22.165v22.167h-22.165z" opacity="1" data-original="#37323d" class=""></path><path fill="#37323d" d="M311.412 156.246h22.165v22.167h-22.165zM333.577 156.246h22.165v22.167h-22.165zM355.742 156.246h22.164v22.167h-22.164zM377.906 156.246h22.165v22.167h-22.165zM400.071 156.246h22.165v22.167h-22.165z" opacity="1" data-original="#37323d" class=""></path><path fill="#251e2d" d="M422.236 156.246h22.165v22.167h-22.165zM67.599 178.413h22.165v22.168H67.599z" opacity="1" data-original="#251e2d" class=""></path><path fill="#47414d" d="M89.764 178.413h22.165v22.168H89.764zM111.929 178.413h22.165v22.168h-22.165z" opacity="1" data-original="#47414d"></path><path fill="#47414d" d="M134.093 178.413h22.165v22.168h-22.165zM156.258 178.413h22.165v22.168h-22.165zM178.423 178.413h22.165v22.168h-22.165zM200.588 178.413h22.165v22.168h-22.165zM222.753 178.413h22.165v22.168h-22.165z" opacity="1" data-original="#47414d"></path><path fill="#47414d" d="M244.917 178.413h22.165v22.168h-22.165z" opacity="1" data-original="#47414d"></path><path fill="#37323d" d="M267.082 178.413h22.165v22.168h-22.165zM289.247 178.413h22.165v22.168h-22.165z" opacity="1" data-original="#37323d" class=""></path><path fill="#37323d" d="M311.412 178.413h22.165v22.168h-22.165zM333.577 178.413h22.165v22.168h-22.165zM355.742 178.413h22.164v22.168h-22.164zM377.906 178.413h22.165v22.168h-22.165zM400.071 178.413h22.165v22.168h-22.165z" opacity="1" data-original="#37323d" class=""></path><path fill="#251e2d" d="M422.236 178.413h22.165v22.168h-22.165zM67.599 200.581h22.165v22.168H67.599z" opacity="1" data-original="#251e2d" class=""></path><path fill="#47414d" d="M89.764 200.581h22.165v22.168H89.764zM111.929 200.581h22.165v22.168h-22.165z" opacity="1" data-original="#47414d"></path><path fill="#47414d" d="M134.093 200.581h22.165v22.168h-22.165zM156.258 200.581h22.165v22.168h-22.165zM178.423 200.581h22.165v22.168h-22.165zM200.588 200.581h22.165v22.168h-22.165zM222.753 200.581h22.165v22.168h-22.165z" opacity="1" data-original="#47414d"></path><path fill="#47414d" d="M244.917 200.581h22.165v22.168h-22.165z" opacity="1" data-original="#47414d"></path><path fill="#37323d" d="M267.082 200.581h22.165v22.168h-22.165zM289.247 200.581h22.165v22.168h-22.165z" opacity="1" data-original="#37323d" class=""></path><path fill="#37323d" d="M311.412 200.581h22.165v22.168h-22.165zM333.577 200.581h22.165v22.168h-22.165zM355.742 200.581h22.164v22.168h-22.164zM377.906 200.581h22.165v22.168h-22.165zM400.071 200.581h22.165v22.168h-22.165z" opacity="1" data-original="#37323d" class=""></path><path fill="#251e2d" d="M422.236 200.581h22.165v22.168h-22.165zM67.599 222.749h22.165v22.167H67.599z" opacity="1" data-original="#251e2d" class=""></path><path fill="#47414d" d="M89.764 222.749h22.165v22.167H89.764zM111.929 222.749h22.165v22.167h-22.165z" opacity="1" data-original="#47414d"></path><path fill="#47414d" d="M134.093 222.749h22.165v22.167h-22.165zM156.258 222.749h22.165v22.167h-22.165zM178.423 222.749h22.165v22.167h-22.165zM200.588 222.749h22.165v22.167h-22.165zM222.753 222.749h22.165v22.167h-22.165z" opacity="1" data-original="#47414d"></path><path fill="#47414d" d="M244.917 222.749h22.165v22.167h-22.165z" opacity="1" data-original="#47414d"></path><path fill="#37323d" d="M267.082 222.749h22.165v22.167h-22.165zM289.247 222.749h22.165v22.167h-22.165z" opacity="1" data-original="#37323d" class=""></path><path fill="#37323d" d="M311.412 222.749h22.165v22.167h-22.165zM333.577 222.749h22.165v22.167h-22.165zM355.742 222.749h22.164v22.167h-22.164zM377.906 222.749h22.165v22.167h-22.165zM400.071 222.749h22.165v22.167h-22.165z" opacity="1" data-original="#37323d" class=""></path><path fill="#251e2d" d="M422.236 222.749h22.165v22.167h-22.165zM67.599 244.916h22.165v22.168H67.599z" opacity="1" data-original="#251e2d" class=""></path><path fill="#47414d" d="M89.764 244.916h22.165v22.168H89.764zM111.929 244.916h22.165v22.168h-22.165z" opacity="1" data-original="#47414d"></path><path fill="#47414d" d="M134.093 244.916h22.165v22.168h-22.165zM156.258 244.916h22.165v22.168h-22.165zM178.423 244.916h22.165v22.168h-22.165zM200.588 244.916h22.165v22.168h-22.165zM222.753 244.916h22.165v22.168h-22.165z" opacity="1" data-original="#47414d"></path><path fill="#47414d" d="M244.917 244.916h22.165v22.168h-22.165z" opacity="1" data-original="#47414d"></path><path fill="#37323d" d="M267.082 244.916h22.165v22.168h-22.165zM289.247 244.916h22.165v22.168h-22.165z" opacity="1" data-original="#37323d" class=""></path><path fill="#37323d" d="M311.412 244.916h22.165v22.168h-22.165zM333.577 244.916h22.165v22.168h-22.165zM355.742 244.916h22.164v22.168h-22.164zM377.906 244.916h22.165v22.168h-22.165zM400.071 244.916h22.165v22.168h-22.165z" opacity="1" data-original="#37323d" class=""></path><path fill="#251e2d" d="M422.236 244.916h22.165v22.168h-22.165zM67.599 267.084h22.165v22.167H67.599z" opacity="1" data-original="#251e2d" class=""></path><path fill="#47414d" d="M89.764 267.084h22.165v22.167H89.764zM111.929 267.084h22.165v22.167h-22.165z" opacity="1" data-original="#47414d"></path><path fill="#47414d" d="M134.093 267.084h22.165v22.167h-22.165zM156.258 267.084h22.165v22.167h-22.165zM178.423 267.084h22.165v22.167h-22.165zM200.588 267.084h22.165v22.167h-22.165zM222.753 267.084h22.165v22.167h-22.165z" opacity="1" data-original="#47414d"></path><path fill="#47414d" d="M244.917 267.084h22.165v22.167h-22.165z" opacity="1" data-original="#47414d"></path><path fill="#37323d" d="M267.082 267.084h22.165v22.167h-22.165zM289.247 267.084h22.165v22.167h-22.165z" opacity="1" data-original="#37323d" class=""></path><path fill="#37323d" d="M311.412 267.084h22.165v22.167h-22.165zM333.577 267.084h22.165v22.167h-22.165zM355.742 267.084h22.164v22.167h-22.164zM377.906 267.084h22.165v22.167h-22.165zM400.071 267.084h22.165v22.167h-22.165z" opacity="1" data-original="#37323d" class=""></path><path fill="#251e2d" d="M422.236 267.084h22.165v22.167h-22.165zM67.599 289.251h22.165v22.168H67.599z" opacity="1" data-original="#251e2d" class=""></path><path fill="#b4b8b7" d="M89.764 289.251h22.165v22.168H89.764zM111.929 289.251h22.165v22.168h-22.165z" opacity="1" data-original="#b4b8b7"></path><path fill="#b4b8b7" d="M134.093 289.251h22.165v22.168h-22.165zM156.258 289.251h22.165v22.168h-22.165zM178.423 289.251h22.165v22.168h-22.165zM200.588 289.251h22.165v22.168h-22.165zM222.753 289.251h22.165v22.168h-22.165z" opacity="1" data-original="#b4b8b7"></path><path fill="#b4b8b7" d="M244.917 289.251h22.165v22.168h-22.165z" opacity="1" data-original="#b4b8b7"></path><path fill="#aaaaaa" d="M267.082 289.251h22.165v22.168h-22.165zM289.247 289.251h22.165v22.168h-22.165z" opacity="1" data-original="#aaaaaa"></path><path fill="#aaaaaa" d="M311.412 289.251h22.165v22.168h-22.165zM333.577 289.251h22.165v22.168h-22.165zM355.742 289.251h22.164v22.168h-22.164zM377.906 289.251h22.165v22.168h-22.165zM400.071 289.251h22.165v22.168h-22.165z" opacity="1" data-original="#aaaaaa"></path><path fill="#251e2d" d="M422.236 289.251h22.165v22.168h-22.165zM67.599 311.419h22.165v22.168H67.599z" opacity="1" data-original="#251e2d" class=""></path><path fill="#b7b8ba" d="M89.762 311.419h22.165v22.168H89.762zM111.927 311.419h22.165v22.168h-22.165zM134.092 311.419h22.165v22.168h-22.165zM156.257 311.419h22.165v22.168h-22.165zM178.422 311.419h22.165v22.168h-22.165z" opacity="1" data-original="#b7b8ba"></path><path fill="#b7b8ba" d="M200.586 311.419h22.165v22.168h-22.165zM222.751 311.419h22.165v22.168h-22.165zM244.916 311.419h22.165v22.168h-22.165z" opacity="1" data-original="#b7b8ba"></path><path fill="#aaaaaa" d="M267.081 311.419h22.165v22.168h-22.165z" opacity="1" data-original="#aaaaaa"></path><path fill="#aaaaaa" d="M289.246 311.419h22.164v22.168h-22.164zM311.41 311.419h22.166v22.168H311.41zM333.576 311.419h22.164v22.168h-22.164zM355.74 311.419h22.165v22.168H355.74z" opacity="1" data-original="#aaaaaa"></path><path fill="#aaaaaa" d="M377.905 311.419h22.165v22.168h-22.165zM400.07 311.419h22.164v22.168H400.07z" opacity="1" data-original="#aaaaaa"></path><path fill="#251e2d" d="M89.764 333.587h22.165v22.167H89.764zM111.929 333.587h22.165v22.167h-22.165z" opacity="1" data-original="#251e2d" class=""></path><path fill="#251e2d" d="M134.093 333.587h22.165v22.167h-22.165zM156.258 333.587h22.165v22.167h-22.165zM178.423 333.587h22.165v22.167h-22.165zM200.588 333.587h22.165v22.167h-22.165zM222.753 333.587h22.165v22.167h-22.165z" opacity="1" data-original="#251e2d" class=""></path><path fill="#251e2d" d="M244.917 333.587h22.165v22.167h-22.165z" opacity="1" data-original="#251e2d" class=""></path><path fill="#898989" d="M244.917 355.754h22.165v22.168h-22.165z" opacity="1" data-original="#898989"></path><path fill="#251e2d" d="M267.082 355.754h22.165v22.168h-22.165zM222.753 355.754h22.165v22.168h-22.165z" opacity="1" data-original="#251e2d" class=""></path><path fill="#898989" d="M244.917 377.922h22.165v22.167h-22.165zM267.082 377.922h22.165v22.167h-22.165z" opacity="1" data-original="#898989"></path><path fill="#251e2d" d="M289.246 377.922h22.164v22.167h-22.164z" opacity="1" data-original="#251e2d" class=""></path><path fill="#898989" d="M222.753 377.922h22.165v22.167h-22.165z" opacity="1" data-original="#898989"></path><path fill="#251e2d" d="M200.586 377.922h22.165v22.167h-22.165zM244.917 400.089h22.165v22.168h-22.165zM267.082 400.089h22.165v22.168h-22.165z" opacity="1" data-original="#251e2d" class=""></path><path fill="#251e2d" d="M289.246 400.089h22.164v22.168h-22.164zM222.753 400.089h22.165v22.168h-22.165zM200.586 400.089h22.165v22.168h-22.165zM267.082 333.587h22.165v22.167h-22.165zM289.247 333.587h22.165v22.167h-22.165z" opacity="1" data-original="#251e2d" class=""></path><path fill="#251e2d" d="M311.412 333.587h22.165v22.167h-22.165zM333.577 333.587h22.165v22.167h-22.165zM355.742 333.587h22.164v22.167h-22.164zM377.906 333.587h22.165v22.167h-22.165zM400.071 333.587h22.165v22.167h-22.165zM422.236 311.419h22.165v22.168h-22.165z" opacity="1" data-original="#251e2d" class=""></path></g></svg>