<svg xmlns="http://www.w3.org/2000/svg" version="1.1" xmlns:xlink="http://www.w3.org/1999/xlink" width="512" height="512" x="0" y="0" viewBox="0 0 60 60" style="enable-background:new 0 0 512 512" xml:space="preserve" class=""><g><g fill="none" fill-rule="nonzero"><path fill="#e64c3c" d="M58.44 30.6c-11.88 14.2-32.78-3.93-44.27 11.64l-.66-2.34v-.01L6.64 15.31c-.22-.78-.43-1.56-.65-2.34C17.48-2.6 38.39 15.53 50.26 1.33c.58-.7 1.13-.4 1.01.62-.06.48-.13.96-.19 1.43-.69 5-1.53 9.44-2.49 13.46-.27 1.13-.54 2.22-.83 3.29a1.846 1.846 0 0 0-.04.23c-.01.28.103.551.31.74a49.283 49.283 0 0 0 9.82 6.93c.28.14.55.27.82.39.46.2.35 1.48-.23 2.18z" opacity="1" data-original="#e64c3c"></path><path fill="#c81e1e" d="M58.44 30.6c-.65.78-1.37 1.5-2.15 2.15-10.83 8.99-27.3-2.22-38.4 5.76h-.01a17.263 17.263 0 0 0-3.71 3.73c-.22-.78-1.95-.87-2.17-1.65v-.01l-.06-.2C9.67 32.26 7.4 24.133 5.13 16c-.22-.78 1.08-2.25.86-3.03 5.09-6.89 12.02-7.18 19.19-6.6 7.87.65 16.04 2.35 22.38-2.46a15.877 15.877 0 0 0 2.7-2.58c.58-.7 1.13-.4 1.01.62-.06.48-.13.96-.19 1.43-.69 5-1.53 9.44-2.49 13.46-.27 1.13-.54 2.22-.83 3.29a1.846 1.846 0 0 0-.04.23c-.01.28.103.551.31.74a49.283 49.283 0 0 0 9.82 6.93c.28.14.55.27.82.39.46.2.35 1.48-.23 2.18z" opacity="1" data-original="#c81e1e" class=""></path><path fill="#f44335" d="M56.41 32.61c-.04.05-.08.09-.12.14-10.83 8.99-27.3-2.22-38.4 5.76h-.01c-2.07.32-2 3.52-3.88 4.49-2.27-8.12-6.6-18.87-8.87-27-.22-.78 1.08-2.25.86-3.03 5.09-6.89 12.02-7.18 19.19-6.6C33.05 7.02 42.66 7.81 49 3c-.71 4.7-2.07 9.87-3 13.78-.31 1.3-.62 2.56-.96 3.79a2.336 2.336 0 0 0-.04.26c-.017.321.112.633.35.85 3.99 3.47 6.87 6.23 10.38 7.98.32.16.63.31.94.44.53.23.4 1.71-.26 2.51z" opacity="1" data-original="#f44335" class=""></path><path fill="#ff9801" d="m2.763 10.947.138-.038a2.413 2.413 0 0 1 2.973 1.675l12.203 43.684a1.93 1.93 0 0 1-1.34 2.379l-1.068.298a1.93 1.93 0 0 1-2.379-1.34L1.088 13.921a2.413 2.413 0 0 1 1.675-2.974z" opacity="1" data-original="#ff9801"></path><g fill="#000"><path d="M15.154 60.023a2.935 2.935 0 0 1-2.818-2.143L.127 14.19a3.418 3.418 0 0 1 2.37-4.206l.137-.038a3.42 3.42 0 0 1 4.207 2.368l12.208 43.69a2.93 2.93 0 0 1-2.033 3.611h-.001l-1.069.299c-.258.072-.524.109-.792.11zM3.552 11.82c-.129 0-.257.017-.38.052l-.137.038c-.751.212-1.19.99-.982 1.743l12.209 43.689a.931.931 0 0 0 1.146.646l1.068-.298a.932.932 0 0 0 .647-1.148L4.915 12.853a1.419 1.419 0 0 0-1.363-1.033z" fill="#000000" opacity="1" data-original="#000000" class=""></path><path d="M14.166 43.244a.999.999 0 0 1-.963-.73l-8.18-29.27a1 1 0 0 1 .158-.864c6.202-8.407 14.947-7.534 23.405-6.689 7.936.796 15.432 1.543 20.905-5.005a1.582 1.582 0 0 1 1.898-.63c.249.108 1.05.572.872 2.013a137.497 137.497 0 0 1-3.536 18.325 44.887 44.887 0 0 0 10.35 7.111c.423.2.727.589.817 1.048.17.95-.079 1.928-.683 2.682l-.003.004c-6.153 7.359-14.53 6.523-22.64 5.713-8.264-.825-16.07-1.607-21.596 5.886a.999.999 0 0 1-.804.406zM7.083 13.182l7.527 26.935c6.095-6.76 14.252-5.946 22.155-5.156 7.934.794 15.43 1.542 20.904-5.004.164-.224.262-.49.284-.766a47.74 47.74 0 0 1-10.577-7.332 1.958 1.958 0 0 1-.583-1.984 133.922 133.922 0 0 0 3.332-16.903c-6.059 6.276-14.023 5.479-21.737 4.71-8.125-.812-15.798-1.58-21.305 5.5zm51.166 16.145.02.009z" fill="#000000" opacity="1" data-original="#000000" class=""></path></g></g></g></svg>